<svg id="Layer_1" data-name="Layer 1" xmlns="http://www.w3.org/2000/svg" viewBox="0 0 267.93 200"><defs><style>.cls-1{fill:#010101;}.cls-2{fill:#fff;}.cls-3{fill:#ffd237;}.cls-4{fill:#eb6faa;}.cls-5{fill:#f2aece;}</style></defs><title>bot</title><g id="_Group_" data-name="&lt;Group&gt;"><circle class="cls-1" cx="133.96" cy="100" r="100"/></g><g id="_Group_2" data-name="&lt;Group&gt;"><path class="cls-1" d="M261.73,113.65a20.19,20.19,0,0,1-14.36,5.89H20.07a20,20,0,1,1,0-40h227.3a20.07,20.07,0,0,1,20.31,20A19.6,19.6,0,0,1,261.73,113.65Z" transform="translate(0.25 0)"/></g><g id="_Group_3" data-name="&lt;Group&gt;"><circle class="cls-2" cx="133.96" cy="100" r="75"/></g><circle id="_Path_" data-name="&lt;Path&gt;" class="cls-3" cx="90.28" cy="100.17" r="43.75"/><circle id="_Path_2" data-name="&lt;Path&gt;" class="cls-4" cx="90.28" cy="100.17" r="32.5"/><circle id="_Path_3" data-name="&lt;Path&gt;" class="cls-2" cx="90.28" cy="100.17" r="13.75"/><g id="_Group_4" data-name="&lt;Group&gt;"><circle class="cls-5" cx="90.2" cy="77.17" r="3.75"/></g><g id="_Group_5" data-name="&lt;Group&gt;"><circle class="cls-5" cx="90.2" cy="123.18" r="3.75"/></g><g id="_Group_6" data-name="&lt;Group&gt;"><circle class="cls-5" cx="67.19" cy="100.17" r="3.75"/></g><g id="_Group_7" data-name="&lt;Group&gt;"><circle class="cls-5" cx="113.2" cy="100.17" r="3.75"/></g><g id="_Group_8" data-name="&lt;Group&gt;"><circle class="cls-5" cx="73.68" cy="83.91" r="3.75" transform="translate(-37.5 76.68) rotate(-45)"/></g><g id="_Group_9" data-name="&lt;Group&gt;"><circle class="cls-5" cx="106.22" cy="116.44" r="3.75" transform="translate(-50.98 109.21) rotate(-45)"/></g><g id="_Group_10" data-name="&lt;Group&gt;"><circle class="cls-5" cx="73.68" cy="116.44" r="3.75" transform="translate(-60.51 86.21) rotate(-45)"/></g><g id="_Group_11" data-name="&lt;Group&gt;"><circle class="cls-5" cx="106.22" cy="83.91" r="3.75" transform="translate(-27.97 99.68) rotate(-45)"/></g><circle id="_Path_4" data-name="&lt;Path&gt;" class="cls-3" cx="177.78" cy="100.17" r="43.75"/><circle id="_Path_5" data-name="&lt;Path&gt;" class="cls-4" cx="177.78" cy="100.17" r="32.5"/><circle id="_Path_6" data-name="&lt;Path&gt;" class="cls-2" cx="177.78" cy="100.17" r="13.75"/><g id="_Group_12" data-name="&lt;Group&gt;"><circle class="cls-5" cx="177.7" cy="77.17" r="3.75"/></g><g id="_Group_13" data-name="&lt;Group&gt;"><circle class="cls-5" cx="177.7" cy="123.18" r="3.75"/></g><g id="_Group_14" data-name="&lt;Group&gt;"><circle class="cls-5" cx="154.69" cy="100.17" r="3.75"/></g><g id="_Group_15" data-name="&lt;Group&gt;"><circle class="cls-5" cx="200.7" cy="100.17" r="3.75"/></g><g id="_Group_16" data-name="&lt;Group&gt;"><circle class="cls-5" cx="161.18" cy="83.91" r="3.75" transform="translate(-11.87 138.55) rotate(-45)"/></g><g id="_Group_17" data-name="&lt;Group&gt;"><circle class="cls-5" cx="193.72" cy="116.44" r="3.75" transform="translate(-25.35 171.08) rotate(-45)"/></g><g id="_Group_18" data-name="&lt;Group&gt;"><circle class="cls-5" cx="161.18" cy="116.44" r="3.75" transform="translate(-34.88 148.08) rotate(-45)"/></g><g id="_Group_19" data-name="&lt;Group&gt;"><circle class="cls-5" cx="193.72" cy="83.91" r="3.75" transform="translate(-2.35 161.55) rotate(-45)"/></g></svg>