<?xml version="1.0" encoding="utf-8"?>
<!DOCTYPE svg PUBLIC "-//W3C//DTD SVG 1.1//EN" "http://www.w3.org/Graphics/SVG/1.1/DTD/svg11.dtd">
<svg version="1.1" id="Layer_1" xmlns="http://www.w3.org/2000/svg" xmlns:xlink="http://www.w3.org/1999/xlink" x="0px" y="0px"
	 width="512px" height="512px" viewBox="0 0 512 512" enable-background="new 0 0 512 512" xml:space="preserve">
<g>
	<rect x="160.008" y="384" width="159.984" height="32"/>
	<path d="M128.008,32h255.984v64h32V32c0-17.656-14.313-32-32-32H128.008c-17.672,0-32,14.344-32,32v64h32V32z"/>
	<rect x="160.008" y="320" width="191.984" height="32"/>
	<path d="M479.992,128H32.008c-17.672,0-32,14.344-32,32v192c0,17.688,14.328,32,32,32h64v96c0,17.688,14.328,32,32,32h255.984
		c17.688,0,32-14.313,32-32v-96h64c17.688,0,32-14.313,32-32V160C511.992,142.344,497.68,128,479.992,128z M383.992,480H128.008V288
		h255.984V480z M447.992,224c-17.688,0-32-14.313-32-32c0-17.656,14.313-32,32-32s32,14.344,32,32
		C479.992,209.688,465.68,224,447.992,224z"/>
</g>
</svg>
