<svg id="Layer_1" data-name="Layer 1" xmlns="http://www.w3.org/2000/svg" viewBox="0 0 49.23 42.53"><defs><style>.cls-1{fill:#fff;}.cls-2{fill:#d2e5f0;}.cls-3{fill:#b6cfe3;}</style></defs><title>telegram</title><path class="cls-1" d="M49.54,5.12,41.75,44.38a2.88,2.88,0,0,1-4.08,1.42L19.7,32l-6.53-3.16-11-3.7S.48,24.56.32,23.25s1.91-2,1.91-2L45.95,4.09S49.54,2.51,49.54,5.12Z" transform="translate(-0.31 -3.62)"/><path class="cls-2" d="M18.32,43.94s-.52,0-1.18-2.12-4-13-4-13L39.58,12.09s1.52-.93,1.47,0c0,0,.27.16-.54.93S19.76,31.69,19.76,31.69" transform="translate(-0.31 -3.62)"/><path class="cls-3" d="M26.59,37.3l-7.11,6.48a1.25,1.25,0,0,1-1.16.16l1.36-12" transform="translate(-0.31 -3.62)"/></svg>